# xmcd
# Track frame offsets:
# 150
# 13077
# 25694
# 39843
# 57459
# 70639
# 82848
# 93942
# 105719
# 116976
# 129617
# 140675
#
# Disc length: 2029 seconds
# Revision: 0
# Processed by: cddbd v1.5.2PL0 Copyright (c) Steve Scherf et al.
# Submitted via: VisiTrax 2.11.3.279 - For more info visit www.synapsa.com
#
DISCID=9a07eb0c
DTITLE=Hunn. Gary and the wayward angels - Heartaches, Hangovers and Cheating S
DTITLE=ongs
DYEAR=2013
DGENRE=Country
TTITLE0=Heads You Win
TTITLE1=Dirty Little World
TTITLE2=Can't Get Past The Hurting
TTITLE3=Out Of My Life. ( with Peta Cherae )
TTITLE4=Christmas In South Dakota
TTITLE5=Hard Times A'Coming
TTITLE6=Till I Found You
TTITLE7=In Georgia, Anywhere ( for G.P. )
TTITLE8=A Little Disappointed In Her Now
TTITLE9=Just Like A Daughter
TTITLE10=Heartaches, Hangovers and Cheating Songs
TTITLE11=My Heart, My Soul, My Own
EXTD=
EXTT0=
EXTT1=
EXTT2=
EXTT3=
EXTT4=
EXTT5=
EXTT6=
EXTT7=
EXTT8=
EXTT9=
EXTT10=
EXTT11=
PLAYORDER=
